<svg viewBox="20.7 0 120 70" color="#fff" width="120" height="70">
                            <path fill="#fff"
                                  d="M 158.4 0 L 158.4 70 L 142.5 70 C 138.545 70 134.749 69.335 131.215 68.113 C 123.285 65.369 116.677 59.816 112.565 52.656 C 109.66 47.598 108 41.737 108 35.5 C 108 19.8 95.3 7.1 79.6 7.1 C 63.9 7.1 51.2 19.8 51.2 35.5 C 51.2 41.43 49.7 47.02 47.055 51.903 C 43.22 58.983 36.98 64.58 29.418 67.581 C 25.486 69.141 21.195 70 16.7 70 L 0 70 L 0 0 L 158.4 0 Z"></path>
                        </svg>